<svg xmlns="http://www.w3.org/2000/svg" version="1.1" xmlns:xlink="http://www.w3.org/1999/xlink" xmlns:svgjs="http://svgjs.com/svgjs" height="100%" width="100%" viewBox="0 0 300 300" xmlns:svgjs="http://svgjs.com/svgjs"><g id="svg-container" transform="matrix(6.11,0,0,6.11,-163.94654596328735,179.16570413589477)"><g id="symbols" transform="matrix(1.9696156822965378,0.3472963864153917,-0.3472963864153917,1.9696156822965378,31.536929257259697,-13.892608152829881)" rotation-value="10"><rect width="4.968819618225098" height="8.658596992492676" fill="#ffffff" opacity="0" x="0px" y="0px" id="SvgjsRect1000"></rect><svg version="1.1" xmlns="http://www.w3.org/2000/svg" xmlns:xlink="http://www.w3.org/1999/xlink" x="0px" y="0px" width="4.9688183470150165" height="8.658587357484151" viewBox="0 0 52.3722 91.263" enable-background="new 0 0 52.3722 91.263" xml:space="preserve" data-external-asset-id="384771" id="symbols_0" fill="#ef8157">
<g id="Layer_3">
</g>
<g id="Layer_2_1_">
	<g id="triangle36_2126_">
		<path d="M12.7938,28.6081c-0.0506,0-0.0895-0.0118-0.1284-0.0428c-0.0759-0.0546-0.0992-0.144-0.0759-0.2297L21.2098,0.152
			c0.0311-0.0972,0.1206-0.1673,0.2257-0.1478l30.7458,3.7255c0.0855,0.0116,0.1653,0.0777,0.1809,0.1673
			c0.0233,0.0855-0.0155,0.1789-0.0954,0.2217L12.9066,28.5768C12.8677,28.6003,12.8288,28.6081,12.7938,28.6081z M21.56,0.4496
			l-8.3965,27.4698l38.368-23.8395L21.56,0.4496z"></path>
	</g>
	<g id="triangle36_2125_">
		<path d="M12.7938,28.6081c-0.0817,0-0.1479-0.039-0.1848-0.1052l-9.7816-17.472c-0.0584-0.0972-0.0195-0.2275,0.0777-0.2859
			l18.402-10.7175c0.0739-0.0428,0.1673-0.0351,0.2412,0.0193c0.0662,0.0546,0.0934,0.144,0.0662,0.2317l-8.6183,28.1816
			c-0.0233,0.0779-0.0973,0.1402-0.1751,0.148C12.8055,28.6081,12.8016,28.6081,12.7938,28.6081z M3.3001,11.0076l9.4314,16.8535
			l8.3187-27.1935L3.3001,11.0076z"></path>
	</g>
	<g id="triangle36_2124_">
		<path d="M0.2145,57.4941c-0.0155,0-0.0349,0-0.0466-0.004c-0.1012-0.0273-0.1751-0.1167-0.1673-0.2217l2.7995-46.3542
			c0.0078-0.0914,0.0739-0.1731,0.1691-0.1926c0.1052-0.0155,0.1829,0.0195,0.2335,0.1012l9.774,17.4702
			c0.0311,0.0584,0.0389,0.1283,0.0078,0.1906L0.4052,57.3656C0.3741,57.4473,0.2962,57.4941,0.2145,57.4941z M3.1834,11.6672
			l-2.6848,44.432l12.0559-27.6895L3.1834,11.6672z"></path>
	</g>
	<g id="triangle36_2123_">
		<path d="M34.6859,47.4788c-0.0467,0-0.0973-0.0193-0.142-0.0544L12.6537,28.5575c-0.0525-0.0428-0.0836-0.109-0.0759-0.1751
			c0.0078-0.0701,0.0447-0.1323,0.0992-0.1636L52.0413,3.7608c0.0817-0.0506,0.1867-0.0428,0.2528,0.0195
			c0.0681,0.0584,0.0914,0.1516,0.0641,0.2373L34.8843,47.3427c-0.0272,0.0661-0.0817,0.1128-0.1479,0.1283
			C34.7248,47.4788,34.7053,47.4788,34.6859,47.4788z M13.1518,28.4252l21.4485,18.4874L51.7144,4.463L13.1518,28.4252z"></path>
	</g>
	<g id="triangle36_2122_">
		<path d="M0.2145,57.4941c-0.0622,0-0.1167-0.0273-0.1594-0.0739c-0.0546-0.0584-0.0663-0.144-0.0351-0.2219l12.5772-28.886
			c0.0292-0.0622,0.0798-0.105,0.1459-0.1245c0.07-0.0116,0.1362,0.004,0.1868,0.0506l21.8999,18.8669
			c0.0545,0.0506,0.0856,0.1323,0.0661,0.2062c-0.0195,0.0739-0.0739,0.1363-0.1479,0.1596L0.2769,57.4823
			C0.2536,57.4901,0.234,57.4941,0.2145,57.4941z M12.8755,28.7461L0.588,56.9492l33.6679-9.7778L12.8755,28.7461z"></path>
	</g>
	<g id="triangle36_2121_">
		<path d="M35.8512,91.263c0,0-0.0078,0-0.0117,0c-0.1128-0.0038-0.1984-0.0932-0.1984-0.2022l-1.1634-43.7921
			c0-0.0271,0-0.0544,0.0117-0.0817l17.474-43.329c0.0351-0.0972,0.1518-0.1516,0.249-0.1205
			c0.107,0.0273,0.1731,0.1323,0.1576,0.245L36.0574,91.0919C36.0418,91.1931,35.9563,91.263,35.8512,91.263z M34.9038,47.3037
			l1.107,41.7454l15.548-83.0472L34.9038,47.3037z"></path>
	</g>
	<g id="triangle36_2120_">
		<path d="M35.8512,91.263c-0.0895,0-0.1751-0.0544-0.1984-0.1478l-7.4569-23.7558c-0.0156-0.0388-0.0156-0.0875,0-0.1265
			l6.2857-20.0303c0.0311-0.0972,0.1381-0.1516,0.2354-0.1478c0.1051,0.0155,0.179,0.1012,0.1868,0.2062l1.1614,43.722
			c0.0078,0.0233,0.0117,0.0466,0.0117,0.0739c0,0.1167-0.0934,0.2062-0.2218,0.2062H35.8512z M28.6239,67.2952l6.9744,22.2442
			L34.5049,48.543L28.6239,67.2952z"></path>
	</g>
	<g id="triangle36_2119_">
		<path d="M28.4021,67.5071c-0.0272,0-0.0506,0-0.0739-0.0116L0.1406,57.4823c-0.0855-0.0311-0.14-0.1167-0.14-0.2062
			c0.004-0.0934,0.0661-0.1751,0.1518-0.1984l34.4713-10.0153c0.0817-0.0193,0.1634,0,0.2179,0.0546
			c0.0545,0.0544,0.0739,0.14,0.0467,0.214l-6.2916,20.0283c-0.0117,0.0546-0.0545,0.1012-0.1051,0.1285
			C28.4605,67.4994,28.4293,67.5071,28.4021,67.5071z M0.9052,57.2994l27.3529,9.7194L34.3649,47.58L0.9052,57.2994z"></path>
	</g>
	<g id="triangle36_2118_">
		<path d="M35.8512,91.263c-0.0506,0-0.105-0.0155-0.144-0.0544L0.0667,57.4317c-0.0739-0.0661-0.0857-0.1751-0.0351-0.2646
			c0.0546-0.0817,0.1596-0.1205,0.253-0.0857l28.1836,10.0113c0.0623,0.0273,0.1089,0.0739,0.1284,0.14l7.4569,23.7578
			c0.0311,0.0934-0.0078,0.1946-0.0856,0.2412C35.929,91.2552,35.894,91.263,35.8512,91.263z M1.0881,57.815l34.3196,32.52
			L28.227,67.4605L1.0881,57.815z"></path>
	</g>
</g>
<g id="Layer_1">
</g>
</svg>